<?xml version="1.0" standalone="no"?>
<!DOCTYPE svg PUBLIC "-//W3C//DTD SVG 20010904//EN"
 "http://www.w3.org/TR/2001/REC-SVG-20010904/DTD/svg10.dtd">
<svg version="1.0" xmlns="http://www.w3.org/2000/svg"
 width="512.000000pt" height="512.000000pt" viewBox="0 0 512.000000 512.000000"
 preserveAspectRatio="xMidYMid meet">

<g transform="translate(0.000000,512.000000) scale(0.100000,-0.100000)"
fill="#000000" stroke="none">
<path d="M2345 4800 c-109 -15 -183 -40 -408 -134 -839 -354 -1528 -651 -1559
-671 -82 -54 -118 -134 -118 -262 0 -129 38 -187 142 -214 40 -11 97 -5 534
55 269 37 497 70 507 72 10 3 25 17 34 30 20 31 5 71 -30 79 -13 4 -238 -23
-499 -59 -261 -36 -488 -66 -504 -66 -51 0 -69 30 -69 115 0 79 13 108 66 147
37 28 1728 745 1812 768 94 27 241 36 337 21 67 -11 550 -162 575 -181 6 -4
100 -37 210 -74 l200 -66 153 0 152 0 0 -535 c0 -322 -4 -535 -9 -535 -5 0
-164 -30 -353 -67 -305 -59 -356 -67 -463 -67 -84 0 -135 4 -170 16 -106 34
-980 350 -1006 363 -15 8 -37 27 -49 42 -19 24 -21 37 -17 81 8 77 34 125 77
138 26 8 128 6 390 -7 379 -19 405 -18 416 26 8 31 -11 63 -41 71 -44 11 -720
39 -769 32 -66 -9 -121 -48 -150 -106 -26 -53 -46 -134 -46 -190 1 -73 56
-154 130 -192 39 -19 949 -347 1045 -376 45 -14 93 -18 190 -18 119 0 158 5
473 67 189 37 347 67 352 67 4 0 11 -11 14 -25 9 -37 65 -96 111 -116 36 -17
74 -19 432 -19 l392 0 15 22 c14 20 16 113 16 805 0 774 0 783 -20 803 -20 20
-30 21 -418 18 l-397 -3 -43 -29 c-43 -29 -92 -98 -92 -129 0 -15 -17 -17
-149 -17 l-149 0 -414 140 c-228 77 -449 149 -492 160 -89 23 -254 33 -341 20z"/>
<path d="M1430 2591 c-6 -13 -10 -189 -10 -505 l0 -485 -432 -3 c-425 -3 -434
-4 -491 -27 -81 -32 -166 -113 -203 -193 l-29 -63 -3 -479 c-2 -437 -1 -480
14 -497 17 -18 81 -19 2069 -19 1898 0 2054 1 2066 17 11 13 14 103 14 492 l0
476 -31 65 c-56 118 -163 199 -290 220 -82 14 -630 13 -655 -1 -31 -16 -43
-57 -24 -85 l15 -23 332 -3 c315 -3 336 -4 379 -24 55 -26 108 -77 135 -130
18 -36 19 -67 22 -461 l3 -423 -1965 0 -1966 0 0 418 c0 398 1 419 21 462 25
55 71 105 124 133 39 21 51 22 463 25 l422 3 0 -155 0 -156 -122 0 c-139 0
-179 -13 -235 -70 -42 -43 -56 -88 -51 -161 5 -73 43 -133 108 -169 l45 -25
1175 0 c1281 0 1218 -3 1286 58 48 42 67 83 68 148 1 73 -34 143 -93 184 -42
29 -46 30 -182 33 l-139 4 0 697 c0 614 -2 699 -16 719 l-15 22 -899 0 c-879
0 -900 0 -910 -19z m1224 -388 c14 -45 32 -70 80 -119 49 -48 74 -66 119 -80
l57 -18 0 -558 0 -558 -563 0 -564 0 -7 250 c-3 137 -9 256 -12 265 -4 8 -17
18 -30 21 -27 7 -28 18 -18 147 5 54 11 77 20 77 27 0 34 41 34 195 0 139 2
156 18 161 39 12 89 37 126 62 46 31 113 129 122 178 l6 34 297 0 297 0 18
-57z"/>
</g>
</svg>
