<?xml version="1.0" standalone="no"?>
<!DOCTYPE svg PUBLIC "-//W3C//DTD SVG 20010904//EN"
 "http://www.w3.org/TR/2001/REC-SVG-20010904/DTD/svg10.dtd">
<svg version="1.0" xmlns="http://www.w3.org/2000/svg"
 width="512.000000pt" height="512.000000pt" viewBox="0 0 512.000000 512.000000"
 preserveAspectRatio="xMidYMid meet">

<g transform="translate(0.000000,512.000000) scale(0.100000,-0.100000)"
fill="#000000" stroke="none">
<path d="M3955 5031 c-88 -24 -143 -68 -174 -140 -17 -41 -27 -51 -58 -61 -21
-7 -64 -24 -95 -37 -56 -25 -59 -25 -98 -9 -22 9 -62 16 -88 16 -50 0 -137
-34 -161 -63 -12 -16 -120 -17 -1395 -17 -1522 0 -1435 3 -1558 -62 -72 -38
-154 -118 -190 -185 -61 -112 -58 12 -58 -2068 0 -2095 -4 -1953 62 -2077 38
-72 118 -154 185 -190 111 -61 25 -58 1696 -58 l1528 0 24 25 c47 46 36 75
-70 185 -117 121 -140 165 -139 270 1 103 26 151 141 272 l93 97 0 1141 c0
1084 1 1142 18 1135 9 -5 47 -19 84 -33 52 -19 68 -29 73 -49 10 -43 54 -98
100 -127 42 -27 45 -32 45 -72 l0 -44 -55 0 c-46 0 -60 -4 -80 -25 l-25 -24 0
-271 0 -271 25 -24 c24 -25 26 -25 215 -25 189 0 191 0 215 25 l25 24 0 271 0
271 -25 24 c-20 21 -34 25 -80 25 l-55 0 0 50 c0 29 5 50 11 50 6 0 30 14 54
30 32 22 52 47 72 89 26 56 30 60 83 76 30 10 72 26 93 37 36 18 41 18 78 4
84 -34 176 -15 250 52 73 66 95 151 63 246 -16 46 -16 48 9 104 14 31 31 76
38 99 10 34 18 44 45 53 93 31 164 126 164 221 0 103 -63 199 -152 233 -42 16
-46 22 -63 74 -9 31 -26 74 -37 95 -18 36 -18 41 -4 78 34 84 15 176 -52 250
-66 73 -151 95 -246 63 -46 -16 -48 -16 -104 9 -31 14 -76 31 -99 37 -35 11
-44 19 -57 55 -19 49 -77 112 -121 130 -41 18 -114 25 -150 16z m99 -181 c26
-25 25 -76 -2 -102 -45 -45 -125 -13 -125 51 0 70 75 100 127 51z m-237 -199
c94 -110 272 -110 366 -1 l32 38 55 -22 54 -22 1 -74 c0 -86 19 -133 73 -186
50 -48 109 -68 183 -61 l61 5 25 -55 25 -54 -40 -35 c-111 -95 -112 -273 -2
-367 l38 -32 -22 -55 -22 -54 -74 -1 c-86 0 -133 -19 -186 -73 -48 -50 -68
-109 -61 -183 l5 -61 -55 -25 -54 -25 -35 40 c-95 111 -273 112 -367 2 l-32
-38 -55 22 -55 22 3 57 c6 97 -35 182 -113 231 l-45 29 0 331 0 331 31 14 c83
37 135 132 126 232 l-5 61 51 24 c29 13 54 24 56 24 2 0 19 -18 38 -39z m-323
-41 c26 -25 25 -76 -2 -102 -45 -45 -125 -13 -125 51 0 70 75 100 127 51z
m1120 0 c26 -25 25 -76 -2 -102 -45 -45 -125 -13 -125 51 0 70 75 100 127 51z
m-1621 -496 c-32 -58 -36 -137 -10 -206 21 -55 93 -124 141 -136 26 -7 34 -17
53 -68 20 -55 22 -77 22 -321 l1 -263 -40 0 -40 0 0 -800 0 -800 -960 0 -960
0 0 1280 0 1280 840 0 840 0 0 40 0 40 69 0 70 0 -26 -46z m261 -64 c26 -25
25 -76 -2 -102 -45 -45 -125 -13 -125 51 0 70 75 100 127 51z m1600 0 c26 -25
25 -76 -2 -102 -45 -45 -125 -13 -125 51 0 70 75 100 127 51z m-1360 -560 c26
-25 25 -76 -2 -102 -45 -45 -125 -13 -125 51 0 70 75 100 127 51z m1120 0 c26
-25 25 -76 -2 -102 -45 -45 -125 -13 -125 51 0 70 75 100 127 51z m-560 -240
c26 -25 25 -76 -2 -102 -45 -45 -125 -13 -125 51 0 70 75 100 127 51z m26
-690 l0 -160 -80 0 -80 0 0 160 0 160 80 0 80 0 0 -160z m-782 -1712 c-36 -47
-75 -128 -83 -171 l-7 -37 -1204 0 -1204 0 0 -80 0 -80 1203 0 1203 0 19 -61
c10 -34 35 -87 56 -118 l38 -56 -1382 -3 c-1011 -2 -1397 0 -1437 8 -207 44
-317 267 -223 454 39 75 128 146 210 165 21 5 662 9 1437 10 l1398 1 -24 -32z"/>
<path d="M2553 3585 c-11 -8 -38 -51 -58 -95 -40 -85 -41 -85 -125 -95 -78
-10 -118 -29 -126 -59 -10 -43 2 -69 67 -139 l61 -67 -11 -63 c-16 -94 -14
-134 9 -157 29 -29 75 -25 157 14 l71 34 68 -39 c80 -44 132 -51 164 -19 23
23 25 60 9 161 l-12 69 67 69 c50 53 66 76 66 98 0 61 -37 84 -162 98 l-56 7
-37 82 c-20 44 -44 89 -52 99 -20 21 -71 22 -100 2z m116 -330 l32 -11 -21
-27 c-16 -20 -21 -38 -18 -66 l3 -38 -32 15 c-30 14 -36 14 -65 0 l-33 -15 0
43 c0 31 -6 49 -23 67 l-24 25 31 7 c17 3 41 19 53 35 l23 28 21 -26 c12 -14
36 -31 53 -37z"/>
<path d="M1840 3426 c-345 -127 -547 -482 -475 -831 76 -368 388 -611 760
-593 295 16 559 214 655 493 25 74 25 106 -1 139 -27 35 -68 34 -134 -3 -262
-148 -583 -14 -687 286 -32 95 -32 269 0 358 29 77 28 110 -3 140 -27 28 -60
31 -115 11z m-68 -293 c-12 -253 103 -488 302 -621 105 -70 195 -97 326 -97
58 0 120 3 138 7 l33 8 -23 -33 c-96 -137 -284 -237 -448 -237 -143 0 -297 66
-404 174 -116 115 -166 235 -167 396 0 161 54 292 167 408 39 39 73 72 75 72
2 0 2 -35 1 -77z"/>
</g>
</svg>
