<?xml version="1.0" standalone="no"?>
<!DOCTYPE svg PUBLIC "-//W3C//DTD SVG 20010904//EN"
 "http://www.w3.org/TR/2001/REC-SVG-20010904/DTD/svg10.dtd">
<svg version="1.0" xmlns="http://www.w3.org/2000/svg"
 width="512.000000pt" height="512.000000pt" viewBox="0 0 512.000000 512.000000"
 preserveAspectRatio="xMidYMid meet">

<g transform="translate(0.000000,512.000000) scale(0.100000,-0.100000)"
fill="#000000" stroke="none">
<path d="M1323 4831 c-100 -69 -195 -146 -291 -235 -72 -69 -82 -82 -82 -112
0 -24 8 -43 25 -59 36 -37 74 -33 129 16 l47 41 -22 -53 c-81 -206 -121 -343
-155 -539 -35 -196 -44 -511 -20 -714 119 -1020 840 -1870 1821 -2145 251 -71
463 -96 754 -88 312 8 578 61 856 172 l110 43 -103 -99 c-711 -682 -1751 -849
-2647 -425 -864 410 -1405 1328 -1337 2271 26 356 106 641 269 957 51 98 64
133 59 153 -16 63 -83 85 -130 43 -32 -29 -121 -199 -180 -343 -91 -224 -151
-473 -177 -730 -14 -145 -6 -435 16 -585 147 -973 834 -1772 1765 -2053 113
-34 249 -64 405 -89 126 -20 534 -17 675 5 458 71 866 247 1219 524 134 105
340 317 442 453 47 63 92 126 98 139 18 33 5 88 -25 107 -35 23 -67 14 -175
-52 -77 -47 -250 -134 -265 -134 -2 0 -4 326 -4 725 l0 726 -25 24 -24 25
-294 0 -294 0 -6 128 c-20 431 -253 803 -637 1015 -110 60 -282 112 -432 132
-52 7 -62 19 -25 29 13 3 41 22 61 42 75 73 100 181 51 229 -49 50 -117 24
-136 -51 -21 -83 -86 -105 -137 -47 -17 19 -22 33 -17 52 8 34 50 71 81 71 14
0 36 11 49 25 33 33 33 78 -1 112 -22 22 -32 25 -72 21 -160 -16 -260 -168
-208 -316 21 -58 50 -94 103 -128 53 -33 53 -33 -82 -54 -389 -60 -753 -350
-904 -721 -60 -148 -91 -299 -91 -446 l0 -93 -85 0 -84 0 -11 38 c-46 165 -80
421 -80 612 0 433 114 843 342 1228 52 89 59 107 54 137 -8 39 -38 65 -76 65
-15 0 -57 -21 -97 -49z m2277 -2881 l0 -851 -157 3 -158 3 -5 428 -5 429 -24
19 c-13 11 -39 19 -60 19 -120 1 -272 64 -367 153 -109 101 -169 222 -181 365
-5 61 -11 81 -29 99 -51 51 -134 11 -134 -64 -1 -122 -63 -273 -153 -369 -101
-109 -222 -169 -365 -181 -112 -9 -122 -22 -122 -155 l-1 -103 -97 100 c-53
55 -125 138 -159 184 l-63 84 0 344 0 343 1040 0 1040 0 0 -850z"/>
<path d="M765 4295 c-50 -49 -15 -135 55 -135 20 0 40 9 57 26 21 21 24 32 19
62 -11 70 -83 96 -131 47z"/>
</g>
</svg>
